HIERARCHY
ROOT Hips
{
	OFFSET 0.000000 0.000000 0.990480
	CHANNELS 6 Xposition Yposition Zposition Xrotation Yrotation Zrotation
	JOINT Spine
	{
		OFFSET 0.000000 0.000000 0.099820
		CHANNELS 6 Xposition Yposition Zposition Xrotation Yrotation Zrotation
		JOINT Chest
		{
			OFFSET 0.000000 0.000000 0.152175
			CHANNELS 6 Xposition Yposition Zposition Xrotation Yrotation Zrotation
			JOINT LeftShoulder
			{
				OFFSET 0.043336 0.000000 0.228616
				CHANNELS 6 Xposition Yposition Zposition Xrotation Yrotation Zrotation
				JOINT LeftArm
				{
					OFFSET 0.105402 0.000000 0.000018
					CHANNELS 6 Xposition Yposition Zposition Xrotation Yrotation Zrotation
					JOINT LeftForeArm
					{
						OFFSET 0.248086 -0.001017 0.000042
						CHANNELS 6 Xposition Yposition Zposition Xrotation Yrotation Zrotation
						JOINT LeftHand
						{
							OFFSET 0.262001 0.000000 0.000044
							CHANNELS 6 Xposition Yposition Zposition Xrotation Yrotation Zrotation
							JOINT LeftHandMiddle1
							{
								OFFSET 0.088481 -0.008664 0.000015
								CHANNELS 6 Xposition Yposition Zposition Xrotation Yrotation Zrotation
								JOINT LeftHandMiddle2
								{
									OFFSET 0.034019 -0.001373 0.000006
									CHANNELS 6 Xposition Yposition Zposition Xrotation Yrotation Zrotation
									JOINT LeftHandMiddle3
									{
										OFFSET -0.082107 0.000845 -0.198329
										CHANNELS 6 Xposition Yposition Zposition Xrotation Yrotation Zrotation
										JOINT LeftHandMiddle4
										{
											OFFSET 0.022740 -0.000966 0.000000
											CHANNELS 6 Xposition Yposition Zposition Xrotation Yrotation Zrotation
											JOINT LeftHandMiddle4_end
											{
												OFFSET 0.022722 -0.001325 0.000000
												CHANNELS 6 Xposition Yposition Zposition Xrotation Yrotation Zrotation
												End Site
												{
													OFFSET 0.022722 -0.001325 0.000000
												}
											}
										}
									}
								}
							}
							JOINT LeftHandThumb1
							{
								OFFSET 0.018711 -0.029540 0.000003
								CHANNELS 6 Xposition Yposition Zposition Xrotation Yrotation Zrotation
								JOINT LeftHandThumb2
								{
									OFFSET 0.024721 -0.023664 0.000004
									CHANNELS 6 Xposition Yposition Zposition Xrotation Yrotation Zrotation
									JOINT LeftHandThumb3
									{
										OFFSET -0.073290 -0.004892 -0.198315
										CHANNELS 6 Xposition Yposition Zposition Xrotation Yrotation Zrotation
										JOINT LeftHandThumb4
										{
											OFFSET 0.013119 -0.012719 -0.000000
											CHANNELS 6 Xposition Yposition Zposition Xrotation Yrotation Zrotation
											JOINT LeftHandThumb4_end
											{
												OFFSET 0.018241 -0.001064 -0.000000
												CHANNELS 6 Xposition Yposition Zposition Xrotation Yrotation Zrotation
												End Site
												{
													OFFSET 0.018241 -0.001064 -0.000000
												}
											}
										}
									}
								}
							}
							JOINT LeftHandIndex1
							{
								OFFSET 0.082507 -0.030061 -0.000028
								CHANNELS 6 Xposition Yposition Zposition Xrotation Yrotation Zrotation
								JOINT LeftHandIndex2
								{
									OFFSET 0.033280 -0.004602 0.000048
									CHANNELS 6 Xposition Yposition Zposition Xrotation Yrotation Zrotation
									JOINT LeftHandIndex3
									{
										OFFSET -0.082333 0.001395 -0.198328
										CHANNELS 6 Xposition Yposition Zposition Xrotation Yrotation Zrotation
										JOINT LeftHandIndex4
										{
											OFFSET 0.018667 -0.002016 0.000000
											CHANNELS 6 Xposition Yposition Zposition Xrotation Yrotation Zrotation
											JOINT LeftHandIndex4_end
											{
												OFFSET 0.018744 -0.001093 -0.000001
												CHANNELS 6 Xposition Yposition Zposition Xrotation Yrotation Zrotation
												End Site
												{
													OFFSET 0.018744 -0.001093 -0.000001
												}
											}
										}
									}
								}
							}
							JOINT LeftHandRing1
							{
								OFFSET 0.085626 0.008930 0.000014
								CHANNELS 6 Xposition Yposition Zposition Xrotation Yrotation Zrotation
								JOINT LeftHandRing2
								{
									OFFSET 0.029129 0.002221 0.000005
									CHANNELS 6 Xposition Yposition Zposition Xrotation Yrotation Zrotation
									JOINT LeftHandRing3
									{
										OFFSET -0.080823 0.000139 -0.198327
										CHANNELS 6 Xposition Yposition Zposition Xrotation Yrotation Zrotation
										JOINT LeftHandRing4
										{
											OFFSET 0.020847 0.001593 -0.000000
											CHANNELS 6 Xposition Yposition Zposition Xrotation Yrotation Zrotation
											JOINT LeftHandRing4_end
											{
												OFFSET 0.020872 -0.001217 0.000000
												CHANNELS 6 Xposition Yposition Zposition Xrotation Yrotation Zrotation
												End Site
												{
													OFFSET 0.020872 -0.001217 0.000000
												}
											}
										}
									}
								}
							}
							JOINT LeftHandPinky1
							{
								OFFSET 0.076700 0.027168 0.000013
								CHANNELS 6 Xposition Yposition Zposition Xrotation Yrotation Zrotation
								JOINT LeftHandPinky2
								{
									OFFSET 0.032485 0.007539 0.000005
									CHANNELS 6 Xposition Yposition Zposition Xrotation Yrotation Zrotation
									JOINT LeftHandPinky3
									{
										OFFSET -0.086932 -0.001024 -0.198326
										CHANNELS 6 Xposition Yposition Zposition Xrotation Yrotation Zrotation
										JOINT LeftHandPinky4
										{
											OFFSET 0.015605 0.003555 -0.000000
											CHANNELS 6 Xposition Yposition Zposition Xrotation Yrotation Zrotation
											JOINT LeftHandPinky4_end
											{
												OFFSET 0.015978 -0.000932 0.000000
												CHANNELS 6 Xposition Yposition Zposition Xrotation Yrotation Zrotation
												End Site
												{
													OFFSET 0.015978 -0.000932 0.000000
												}
											}
										}
									}
								}
							}
						}
					}
				}
			}
			JOINT RightShoulder
			{
				OFFSET -0.043277 0.000000 0.228616
				CHANNELS 6 Xposition Yposition Zposition Xrotation Yrotation Zrotation
				JOINT RightArm
				{
					OFFSET -0.105461 0.000000 0.000004
					CHANNELS 6 Xposition Yposition Zposition Xrotation Yrotation Zrotation
					JOINT RightForeArm
					{
						OFFSET -0.247377 0.000000 0.000009
						CHANNELS 6 Xposition Yposition Zposition Xrotation Yrotation Zrotation
						JOINT RightHand
						{
							OFFSET -0.262149 0.000000 0.000009
							CHANNELS 6 Xposition Yposition Zposition Xrotation Yrotation Zrotation
							JOINT RightHandMiddle1
							{
								OFFSET -0.088557 -0.008155 0.000003
								CHANNELS 6 Xposition Yposition Zposition Xrotation Yrotation Zrotation
								JOINT RightHandMiddle2
								{
									OFFSET -0.034042 -0.001186 0.000001
									CHANNELS 6 Xposition Yposition Zposition Xrotation Yrotation Zrotation
									JOINT RightHandMiddle3
									{
										OFFSET 0.082043 0.000740 -0.198231
										CHANNELS 6 Xposition Yposition Zposition Xrotation Yrotation Zrotation
										JOINT RightHandMiddle4
										{
											OFFSET -0.022771 -0.000848 0.000000
											CHANNELS 6 Xposition Yposition Zposition Xrotation Yrotation Zrotation
											JOINT RightHandMiddle4_end
											{
												OFFSET -0.022755 -0.001199 0.000000
												CHANNELS 6 Xposition Yposition Zposition Xrotation Yrotation Zrotation
												End Site
												{
													OFFSET -0.022755 -0.001199 0.000000
												}
											}
										}
									}
								}
							}
							JOINT RightHandPinky1
							{
								OFFSET -0.076599 0.027405 0.000003
								CHANNELS 6 Xposition Yposition Zposition Xrotation Yrotation Zrotation
								JOINT RightHandPinky2
								{
									OFFSET -0.032445 0.007645 0.000002
									CHANNELS 6 Xposition Yposition Zposition Xrotation Yrotation Zrotation
									JOINT RightHandPinky3
									{
										OFFSET 0.086855 -0.001144 -0.198231
										CHANNELS 6 Xposition Yposition Zposition Xrotation Yrotation Zrotation
										JOINT RightHandPinky4
										{
											OFFSET -0.015585 0.003622 -0.000000
											CHANNELS 6 Xposition Yposition Zposition Xrotation Yrotation Zrotation
											JOINT RightHandPinky4_end
											{
												OFFSET -0.015978 -0.000842 -0.000001
												CHANNELS 6 Xposition Yposition Zposition Xrotation Yrotation Zrotation
												End Site
												{
													OFFSET -0.015978 -0.000842 -0.000000
												}
											}
										}
									}
								}
							}
							JOINT RightHandRing1
							{
								OFFSET -0.085632 0.009333 0.000003
								CHANNELS 6 Xposition Yposition Zposition Xrotation Yrotation Zrotation
								JOINT RightHandRing2
								{
									OFFSET -0.029113 0.002339 0.000001
									CHANNELS 6 Xposition Yposition Zposition Xrotation Yrotation Zrotation
									JOINT RightHandRing3
									{
										OFFSET 0.080756 0.000043 -0.198231
										CHANNELS 6 Xposition Yposition Zposition Xrotation Yrotation Zrotation
										JOINT RightHandRing4
										{
											OFFSET -0.020880 0.001697 -0.000000
											CHANNELS 6 Xposition Yposition Zposition Xrotation Yrotation Zrotation
											JOINT RightHandRing4_end
											{
												OFFSET -0.020920 -0.001103 0.000000
												CHANNELS 6 Xposition Yposition Zposition Xrotation Yrotation Zrotation
												End Site
												{
													OFFSET -0.020920 -0.001103 0.000000
												}
											}
										}
									}
								}
							}
							JOINT RightHandIndex1
							{
								OFFSET -0.082535 -0.029415 0.000003
								CHANNELS 6 Xposition Yposition Zposition Xrotation Yrotation Zrotation
								JOINT RightHandIndex2
								{
									OFFSET -0.033301 -0.004409 0.000001
									CHANNELS 6 Xposition Yposition Zposition Xrotation Yrotation Zrotation
									JOINT RightHandIndex3
									{
										OFFSET 0.082241 0.001283 -0.198230
										CHANNELS 6 Xposition Yposition Zposition Xrotation Yrotation Zrotation
										JOINT RightHandIndex4
										{
											OFFSET -0.018691 -0.001904 -0.000000
											CHANNELS 6 Xposition Yposition Zposition Xrotation Yrotation Zrotation
											JOINT RightHandIndex4_end
											{
												OFFSET -0.018762 -0.000989 0.000000
												CHANNELS 6 Xposition Yposition Zposition Xrotation Yrotation Zrotation
												End Site
												{
													OFFSET -0.018762 -0.000989 0.000000
												}
											}
										}
									}
								}
							}
							JOINT RightHandThumb1
							{
								OFFSET -0.018894 -0.029252 0.000001
								CHANNELS 6 Xposition Yposition Zposition Xrotation Yrotation Zrotation
								JOINT RightHandThumb2
								{
									OFFSET -0.024834 -0.023384 0.000001
									CHANNELS 6 Xposition Yposition Zposition Xrotation Yrotation Zrotation
									JOINT RightHandThumb3
									{
										OFFSET 0.073184 -0.004921 -0.198229
										CHANNELS 6 Xposition Yposition Zposition Xrotation Yrotation Zrotation
										JOINT RightHandThumb4
										{
											OFFSET -0.013192 -0.012561 0.000000
											CHANNELS 6 Xposition Yposition Zposition Xrotation Yrotation Zrotation
											JOINT RightHandThumb4_end
											{
												OFFSET -0.018190 -0.000959 -0.000000
												CHANNELS 6 Xposition Yposition Zposition Xrotation Yrotation Zrotation
												End Site
												{
													OFFSET -0.018190 -0.000959 -0.000000
												}
											}
										}
									}
								}
							}
						}
					}
				}
			}
			JOINT Neck
			{
				OFFSET 0.000000 0.000000 0.337083
				CHANNELS 6 Xposition Yposition Zposition Xrotation Yrotation Zrotation
				JOINT Head
				{
					OFFSET 0.000000 0.000000 0.150550
					CHANNELS 6 Xposition Yposition Zposition Xrotation Yrotation Zrotation
					JOINT Head_end
					{
						OFFSET -0.000000 -0.000000 -0.090577
						CHANNELS 6 Xposition Yposition Zposition Xrotation Yrotation Zrotation
						End Site
						{
							OFFSET 0.000000 -0.000000 0.142526
						}
					}
				}
			}
		}
	}
	JOINT LeftUpLeg
	{
		OFFSET 0.115000 0.000000 -0.015985
		CHANNELS 6 Xposition Yposition Zposition Xrotation Yrotation Zrotation
		JOINT LeftLeg
		{
			OFFSET 0.000000 0.000000 -0.417140
			CHANNELS 6 Xposition Yposition Zposition Xrotation Yrotation Zrotation
			JOINT LeftFoot
			{
				OFFSET 0.000000 0.000000 -0.438030
				CHANNELS 6 Xposition Yposition Zposition Xrotation Yrotation Zrotation
				JOINT LeftToeBase
				{
					OFFSET 0.000000 -0.104620 -0.083528
					CHANNELS 6 Xposition Yposition Zposition Xrotation Yrotation Zrotation
					JOINT LeftToeBase_end
					{
						OFFSET -0.015494 -0.101738 -0.005646
						CHANNELS 6 Xposition Yposition Zposition Xrotation Yrotation Zrotation
						End Site
						{
							OFFSET 0.000000 -0.115834 -0.000823
						}
					}
				}
			}
		}
	}
	JOINT RightUpLeg
	{
		OFFSET -0.115000 0.000000 -0.015985
		CHANNELS 6 Xposition Yposition Zposition Xrotation Yrotation Zrotation
		JOINT RightLeg
		{
			OFFSET 0.000000 0.000000 -0.417140
			CHANNELS 6 Xposition Yposition Zposition Xrotation Yrotation Zrotation
			JOINT RightFoot
			{
				OFFSET 0.000000 0.000000 -0.438030
				CHANNELS 6 Xposition Yposition Zposition Xrotation Yrotation Zrotation
				JOINT RightToeBase
				{
					OFFSET 0.000000 -0.104620 -0.083528
					CHANNELS 6 Xposition Yposition Zposition Xrotation Yrotation Zrotation
					JOINT RightToeBase_end
					{
						OFFSET 0.015494 -0.101738 -0.005646
						CHANNELS 6 Xposition Yposition Zposition Xrotation Yrotation Zrotation
						End Site
						{
							OFFSET -0.000000 -0.115834 -0.000823
						}
					}
				}
			}
		}
	}
}
MOTION
Frames: 2
Frame Time: 0.016667
-0.029600 -2.775600 1.033800 3.842699 1.933100 -113.850702 -0.000000 -0.000300 0.100000 0.354600 0.265101 -2.158298 -0.000000 -0.001200 0.153000 2.098400 0.176900 -2.437699 0.043300 0.001500 0.247100 -17.043301 -3.631604 4.704502 0.105399 -0.000000 0.000000 -1.596604 -44.594793 -11.783402 0.248400 -0.001000 -0.000000 -4.280796 -17.050997 -1.736398 0.262400 0.000000 -0.000000 -148.371817 14.765009 9.161895 0.088481 -0.008664 0.000014 1.974507 37.786901 -0.112502 0.034019 -0.001373 0.000006 -0.436798 21.780094 0.214500 -0.082107 0.000845 -0.198329 -0.000001 -0.000002 -0.000001 0.022740 -0.000966 0.000000 0.000001 -0.000003 -0.000002 0.022722 -0.001325 0.000001 -0.000000 -0.000002 -0.000001 0.018711 -0.029540 0.000002 -7.338498 8.209598 -12.151000 0.024721 -0.023664 0.000004 0.000702 -0.000000 -4.559798 -0.073290 -0.004892 -0.198315 0.000001 0.000000 0.000002 0.013118 -0.012718 -0.000001 0.000002 -0.000000 0.000001 0.018241 -0.001064 -0.000000 0.000001 -0.000001 -0.000001 0.082507 -0.030061 -0.000028 5.790004 48.175295 9.450601 0.033280 -0.004602 0.000048 8.012815 61.652300 -6.207410 -0.082333 0.001395 -0.198328 -0.000002 0.000000 -0.000000 0.018667 -0.002016 0.000000 0.000004 0.000001 -0.000001 0.018744 -0.001093 -0.000001 -0.000001 0.000000 -0.000001 0.085626 0.008930 0.000013 1.229502 22.372298 11.640797 0.029129 0.002221 0.000006 0.726901 21.452895 -0.408101 -0.080822 0.000139 -0.198327 -0.000001 0.000001 0.000000 0.020847 0.001593 0.000000 0.000002 0.000006 -0.000000 0.020872 -0.001217 -0.000000 -0.000000 0.000002 -0.000001 0.076700 0.027168 0.000012 0.510800 24.744198 13.499296 0.032485 0.007539 0.000005 -2.510196 18.769592 0.180200 -0.086932 -0.001024 -0.198327 0.000002 0.000004 -0.000003 0.015605 0.003555 0.000000 0.000002 0.000002 0.000001 0.015978 -0.000932 0.000000 -0.000001 -0.000001 -0.000000 -0.043300 0.001500 0.238900 0.857900 -11.312299 -10.224700 -0.105500 0.000000 0.000000 -8.969801 18.996394 13.675799 -0.251300 0.000000 -0.000000 -20.916498 -0.001997 0.002799 -0.266300 0.000000 0.000000 -105.973500 21.207597 -37.777004 -0.088557 -0.008155 0.000003 -0.453992 -5.378898 -1.371599 -0.034042 -0.001186 0.000001 -0.672799 -4.993599 -0.247800 0.082043 0.000740 -0.198231 -0.000002 -0.000002 0.000002 -0.022771 -0.000848 0.000000 -0.000000 0.000002 -0.000000 -0.022755 -0.001199 0.000000 0.000001 0.000002 -0.000000 -0.076599 0.027405 0.000003 1.657201 -16.542798 -1.502601 -0.032445 0.007645 0.000002 -0.622404 -11.029201 0.326199 0.086855 -0.001144 -0.198231 -0.000003 0.000000 0.000002 -0.015585 0.003622 -0.000000 -0.000001 -0.000001 0.000001 -0.015978 -0.000842 -0.000000 0.000003 0.000001 -0.000000 -0.085632 0.009333 0.000003 0.954806 -19.935101 -4.477698 -0.029113 0.002339 0.000001 1.994201 -6.440198 0.756198 0.080756 0.000043 -0.198230 0.000003 -0.000000 -0.000000 -0.020881 0.001697 -0.000000 -0.000001 -0.000000 0.000001 -0.020920 -0.001103 -0.000000 0.000001 -0.000000 -0.000000 -0.082535 -0.029415 0.000003 -4.423297 -2.166699 0.908900 -0.033301 -0.004409 0.000001 -5.065397 0.133005 -1.667103 0.082241 0.001283 -0.198230 -0.000002 0.000003 -0.000002 -0.018691 -0.001904 -0.000000 0.000002 0.000000 -0.000000 -0.018762 -0.000989 0.000000 -0.000002 0.000000 0.000000 -0.018894 -0.029252 0.000001 2.457999 -14.425500 15.888094 -0.024834 -0.023384 0.000001 -0.002897 0.000099 -3.718809 0.073184 -0.004921 -0.198229 -0.000002 -0.000002 -0.000002 -0.013192 -0.012561 0.000001 0.000002 -0.000001 -0.000002 -0.018191 -0.000959 -0.000000 -0.000001 0.000002 0.000000 -0.000000 0.001500 0.292500 0.158600 1.963300 4.926201 0.000000 -0.000000 0.150550 -10.390499 2.116000 4.939898 0.000000 -0.000000 -0.090577 0.000001 -0.000000 0.000001 0.115000 -0.000000 -0.016000 7.437200 1.707100 2.301901 0.000000 0.000000 -0.417200 0.000000 -0.000000 -0.000001 0.000000 -0.000000 -0.438030 27.813206 -2.177700 0.236198 0.000000 -0.104600 -0.083500 -32.051496 -2.296200 1.629800 -0.015494 -0.101738 -0.005646 -0.000000 0.000000 -0.000002 -0.115000 -0.000000 -0.016000 4.090000 0.285000 5.068100 -0.000000 0.000000 -0.417200 -0.000000 -0.000000 -0.000000 0.000000 -0.000000 -0.438030 51.343307 0.228900 0.186998 -0.000000 -0.104600 -0.083500 -52.390799 -2.930101 1.378804 0.015494 -0.101738 -0.005646 0.000000 -0.000000 -0.000000 
-0.029700 -2.775000 1.033900 3.847400 1.964100 -113.831502 0.000000 -0.000300 0.100000 0.346100 0.255101 -2.109602 -0.000000 -0.001200 0.153000 2.092400 0.166600 -2.382502 0.043300 0.001400 0.247200 -16.797896 -3.529404 4.873802 0.105400 0.000000 0.000000 -1.510810 -47.572401 -11.876595 0.248700 -0.001000 -0.000000 -0.672100 -8.563796 -0.556499 0.262700 0.000000 0.000000 -150.709599 15.639410 7.372398 0.088481 -0.008664 0.000015 1.974504 37.786898 -0.112504 0.034019 -0.001373 0.000006 -0.436795 21.780094 0.214499 -0.082107 0.000845 -0.198329 -0.000001 0.000003 -0.000001 0.022740 -0.000966 0.000000 -0.000001 -0.000001 -0.000001 0.022723 -0.001325 -0.000000 0.000000 0.000003 -0.000000 0.018711 -0.029540 0.000003 -7.338496 8.209594 -12.151005 0.024721 -0.023664 0.000004 0.000700 -0.000001 -4.559797 -0.073290 -0.004892 -0.198315 0.000001 0.000001 0.000002 0.013119 -0.012719 -0.000000 -0.000001 -0.000001 0.000000 0.018241 -0.001064 -0.000000 0.000000 -0.000001 -0.000001 0.082507 -0.030061 -0.000028 5.790006 48.175390 9.450597 0.033280 -0.004602 0.000048 8.012820 61.652293 -6.207410 -0.082332 0.001395 -0.198328 -0.000002 -0.000000 0.000001 0.018667 -0.002016 0.000000 -0.000001 -0.000000 -0.000000 0.018744 -0.001093 -0.000000 0.000001 -0.000001 0.000000 0.085626 0.008930 0.000014 1.229502 22.372198 11.640800 0.029129 0.002221 0.000005 0.726901 21.452898 -0.408099 -0.080823 0.000139 -0.198327 -0.000002 0.000001 0.000001 0.020847 0.001593 0.000000 -0.000001 0.000001 0.000000 0.020872 -0.001217 -0.000000 0.000000 -0.000001 -0.000001 0.076700 0.027168 0.000013 0.510802 24.744196 13.499298 0.032485 0.007539 0.000005 -2.510196 18.769595 0.180199 -0.086932 -0.001023 -0.198326 0.000000 -0.000000 -0.000005 0.015605 0.003555 0.000000 0.000001 0.000001 0.000001 0.015978 -0.000932 0.000000 -0.000000 -0.000000 -0.000002 -0.043300 0.001400 0.238900 0.857401 -11.298898 -10.232000 -0.105500 0.000000 0.000000 -8.867403 19.091595 13.452903 -0.251300 0.000000 -0.000000 -20.906898 -0.001998 0.002798 -0.266300 0.000000 -0.000000 -106.018005 21.139396 -37.741406 -0.088557 -0.008155 0.000003 -0.453999 -5.378998 -1.371600 -0.034042 -0.001186 0.000001 -0.672804 -4.993599 -0.247798 0.082043 0.000740 -0.198231 0.000000 -0.000002 0.000002 -0.022771 -0.000848 0.000000 0.000002 0.000001 0.000001 -0.022755 -0.001199 0.000000 0.000000 0.000000 -0.000000 -0.076599 0.027405 0.000003 1.657301 -16.542798 -1.502598 -0.032445 0.007645 0.000002 -0.622395 -11.029201 0.326200 0.086855 -0.001144 -0.198231 0.000000 -0.000000 -0.000002 -0.015585 0.003622 -0.000000 0.000004 0.000000 -0.000001 -0.015979 -0.000842 -0.000000 0.000001 -0.000000 -0.000000 -0.085632 0.009333 0.000003 0.954799 -19.935099 -4.477695 -0.029113 0.002339 0.000001 1.994202 -6.440298 0.756199 0.080757 0.000043 -0.198230 0.000004 0.000001 0.000000 -0.020880 0.001697 -0.000000 0.000001 -0.000001 -0.000000 -0.020921 -0.001103 -0.000000 -0.000004 -0.000001 0.000000 -0.082535 -0.029415 0.000003 -4.423297 -2.166701 0.908902 -0.033301 -0.004409 0.000001 -5.065399 0.132901 -1.667101 0.082241 0.001283 -0.198230 0.000000 0.000001 0.000003 -0.018691 -0.001905 -0.000000 -0.000001 -0.000001 0.000003 -0.018762 -0.000989 0.000000 -0.000000 -0.000000 0.000001 -0.018894 -0.029252 0.000001 2.458000 -14.425498 15.888094 -0.024834 -0.023384 0.000001 -0.002898 0.000100 -3.718805 0.073184 -0.004921 -0.198229 -0.000000 -0.000002 -0.000000 -0.013192 -0.012561 0.000000 0.000003 0.000001 0.000001 -0.018190 -0.000959 -0.000000 -0.000000 -0.000001 -0.000000 0.000000 0.001400 0.292500 0.148400 1.970300 4.868199 0.000000 0.000000 0.150550 -10.411402 2.129700 4.882498 -0.000000 -0.000000 -0.090577 0.000001 -0.000000 0.000000 0.115000 -0.000000 -0.016000 7.482900 1.680301 2.288001 -0.000000 0.000000 -0.417200 -0.000000 0.000000 -0.000001 0.000000 -0.000000 -0.438030 27.834705 -2.158402 0.234798 0.000000 -0.104600 -0.083500 -32.087699 -2.280502 1.617697 -0.015494 -0.101738 -0.005646 -0.000000 0.000000 -0.000000 -0.115000 -0.000000 -0.016000 4.138999 0.260900 5.053499 -0.000000 -0.000000 -0.417200 -0.000000 -0.000000 0.000001 -0.000000 0.000000 -0.438030 51.368005 0.238699 0.192799 -0.000000 -0.104600 -0.083500 -52.432104 -2.898802 1.362904 0.015494 -0.101738 -0.005646 -0.000000 -0.000000 -0.000001 
